<svg xmlns="http://www.w3.org/2000/svg" width="155" height="49" viewBox="0 0 155 49" fill="none">
  <g opacity="0.2" filter="url(#filter0_d_382_2500)">
    <path fill-rule="evenodd" clip-rule="evenodd" d="M52.7942 13.445C54.185 9.04803 57.5619 5.84121 62.6159 6.44305C64.1158 6.61821 67.6791 7.90273 68.9108 8.94472C66.7564 6.81583 65.0066 5.35165 61.5979 5.35165C59.3634 5.34149 57.2085 6.17094 55.5697 7.672C53.9308 9.17306 52.9306 11.2335 52.7715 13.4361" fill="#4388F0"/>
  </g>
  <path fill-rule="evenodd" clip-rule="evenodd" d="M80.059 8.26107L76.2503 4.49284C74.3271 2.59584 71.8781 1.30457 69.2127 0.782107C66.5472 0.259646 63.7849 0.529426 61.2746 1.55738C58.7642 2.58533 56.6184 4.32534 55.1081 6.55767C53.5978 8.79001 52.7909 11.4145 52.7891 14.0998C52.7933 12.3731 53.3139 10.6862 54.2854 9.251C55.257 7.81583 56.6362 6.69649 58.2497 6.03367C59.8631 5.37085 61.6389 5.19412 63.3537 5.5257C65.0685 5.85729 66.6459 6.68238 67.8875 7.89727L83.8814 23.7023C85.8055 25.5989 88.2551 26.8897 90.921 27.4116C93.5869 27.9336 96.3495 27.6634 98.8601 26.6351C101.371 25.6067 103.517 23.8664 105.027 21.6338C106.538 19.4012 107.345 16.7764 107.347 14.0908C107.342 15.8198 106.82 17.5088 105.846 18.9453C104.873 20.3818 103.491 21.5017 101.874 22.1641C100.258 22.8266 98.48 23.002 96.7633 22.6683C95.0465 22.3347 93.4679 21.5068 92.226 20.2889L80.059 8.26107Z" fill="#4388F0"/>
  <g opacity="0.2" filter="url(#filter1_d_382_2500)">
    <path fill-rule="evenodd" clip-rule="evenodd" d="M107.321 14.7393C105.935 19.1363 102.558 22.3386 97.4901 21.7457C95.9903 21.5706 92.4225 20.2816 91.1953 19.2396C93.3496 21.3685 95.0995 22.8326 98.5082 22.8326C100.742 22.8427 102.897 22.0131 104.535 20.512C106.173 19.0108 107.172 16.9504 107.33 14.7482" fill="#4388F0"/>
  </g>
  <path fill-rule="evenodd" clip-rule="evenodd" d="M107.341 13.8661C107.341 13.5607 107.309 13.2598 107.273 12.9679C107.309 13.2688 107.332 13.5697 107.341 13.8661ZM73.1993 15.0384L69.277 18.9144C65.0547 23.0644 57.5873 20.2034 57.5873 14.0907C57.5873 8.20704 64.5638 5.24725 68.9225 8.94362L67.8771 7.91511C62.614 2.66473 53.2195 5.91646 52.7832 13.6371V14.0862C52.7845 16.7722 53.5911 19.3976 55.1013 21.6309C56.6114 23.8642 58.7574 25.6052 61.2682 26.6341C63.7789 27.6629 66.5419 27.9336 69.2082 27.4117C71.8745 26.8899 74.3246 25.599 76.249 23.7022L79.1169 20.8681L73.1993 15.0384ZM86.9161 13.143L90.8248 9.28047C95.0744 5.09904 102.524 7.99595 102.524 14.0907C102.524 20.1854 95.0971 23.0734 90.8384 18.9189L92.2247 20.2887C97.306 25.3056 106.16 22.5344 107.223 15.4336L107.328 14.0862C107.318 11.4058 106.507 8.78795 104.996 6.56193C103.485 4.33591 101.342 2.60111 98.8358 1.57574C96.3296 0.550363 93.5726 0.280198 90.9115 0.799223C88.2504 1.31825 85.804 2.60328 83.88 4.49271L81.0167 7.32225L86.9161 13.143Z" fill="#4388F0"/>
  <path fill-rule="evenodd" clip-rule="evenodd" d="M151.601 16.0223V11.2525H143.134V5.28347H150.729C152.96 5.28347 154.401 4.66816 154.401 2.24733C154.411 1.73984 154.368 1.23268 154.274 0.733747L154.228 0.513672H137.066V27.5111H154.896L154.919 27.2596C154.956 26.8105 155.001 26.3254 155.001 25.8583C155.001 23.689 153.442 22.7817 151.406 22.7817H143.134V16.0447L151.601 16.0223Z" fill="#4388F0"/>
  <path fill-rule="evenodd" clip-rule="evenodd" d="M114.148 20.7725L113.98 20.9925C113.325 21.8549 112.207 23.4448 112.207 24.5542C112.234 24.9542 112.361 25.3414 112.576 25.6809C112.792 26.0204 113.09 26.3015 113.443 26.4989C115.552 27.7295 118.402 28.1562 120.815 28.1562C126.487 28.1562 131.119 25.3132 131.119 19.2768C131.119 15.549 129.151 13.5683 125.842 12.1491C125.078 11.8167 124.292 11.5338 123.51 11.2508C122.147 10.7433 119.874 10.0157 119.102 8.7177C118.881 8.34164 118.767 7.91303 118.775 7.47809C118.775 5.29979 120.997 4.75185 122.774 4.75185C124.886 4.8268 126.914 5.58234 128.551 6.9032L128.755 7.06489L128.928 6.87625C129.583 6.1801 130.601 4.79227 130.601 3.80867C130.601 3.39753 130.487 2.99415 130.272 2.64251C130.056 2.29087 129.747 2.00446 129.378 1.81452H129.355C128.583 1.31134 127.737 0.928123 126.846 0.678208C125.364 0.226393 123.821 -0.00223386 122.27 1.64509e-05C117.302 1.64509e-05 112.484 2.5466 112.484 8.01256C112.484 11.92 114.489 13.8513 118.011 15.2391C118.647 15.4861 119.293 15.6883 119.943 15.9263C121.374 16.4159 123.479 17.0491 124.406 18.2887C124.804 18.8356 125.009 19.4971 124.988 20.1706C124.988 22.56 122.91 23.4493 120.793 23.4493C118.266 23.4493 116.316 22.4477 114.37 20.9431L114.148 20.7725Z" fill="#4388F0"/>
  <path fill-rule="evenodd" clip-rule="evenodd" d="M26.2734 0.468707V27.4167H32.3001V15.9503H41.8128V27.3988H47.8394V3.59468C47.8394 1.28613 46.2987 0.244141 44.0898 0.244141C43.6353 0.244141 43.1808 0.324985 42.7581 0.360915L41.8128 0.473199V11.1401H32.3001V3.59468C32.3001 1.23673 30.7048 0.244141 28.4687 0.244141C28.0642 0.244141 27.6506 0.329476 27.2552 0.360915L26.2734 0.468707Z" fill="#4388F0"/>
  <path fill-rule="evenodd" clip-rule="evenodd" d="M19.2026 20.5299L18.989 20.7141C17.2619 22.2097 15.6711 23.1753 13.2987 23.1753C7.79012 23.1753 6.14483 18.684 6.14483 14.013C6.14483 9.55757 7.79012 4.96742 13.0578 4.96742C15.5711 4.96742 17.3119 5.86569 19.0572 7.61282L19.248 7.80145L19.4435 7.61731C20.2934 6.80887 21.4478 5.62316 21.4478 4.37905C21.4283 4.01296 21.3317 3.65492 21.1642 3.3278C20.9967 3.00067 20.7621 2.71166 20.4752 2.47922C18.5208 0.723105 15.3621 0 12.7805 0C4.12231 0 0 6.13966 0 14.1702C0 22.3444 3.95869 28.1787 12.726 28.1787C14.5289 28.2035 16.3209 27.8989 18.0118 27.2804C18.8723 26.9733 19.6664 26.5086 20.3525 25.9105C20.6332 25.6878 20.8603 25.4063 21.0175 25.0863C21.1747 24.7663 21.258 24.4158 21.2615 24.0601C21.2615 23.0046 20.0252 21.5045 19.3617 20.7275L19.2026 20.5299Z" fill="#4388F0"/>
  <path d="M3.63959 46.2931H6.76978V42.9591L10.4094 35.7659H7.10199L5.23421 40.0336H5.17515L3.30737 35.7659H0L3.63959 42.9591V46.2931Z" fill="#4388F0"/>
  <path d="M18.9917 46.4828C22.3065 46.4828 24.3662 44.389 24.3662 41.0331V41.0185C24.3662 37.6699 22.2991 35.5762 18.9917 35.5762C15.7065 35.5762 13.632 37.6626 13.632 41.0185V41.0331C13.632 44.3963 15.6917 46.4828 18.9917 46.4828ZM18.9917 43.9586C17.6776 43.9586 16.8212 42.8497 16.8212 41.0331V41.0185C16.8212 39.202 17.685 38.1004 18.9917 38.1004C20.3206 38.1004 21.1769 39.2093 21.1769 41.0185V41.0331C21.1769 42.8278 20.3427 43.9586 18.9917 43.9586Z" fill="#4388F0"/>
  <path d="M33.9009 46.4828C36.7505 46.4828 38.6035 44.9288 38.6035 42.5433V35.7659H35.4734V42.2369C35.4734 43.3457 34.927 43.9586 33.9083 43.9586C32.8895 43.9586 32.3432 43.3457 32.3432 42.2369V35.7659H29.213V42.5433C29.213 44.9434 31.0881 46.4828 33.9009 46.4828Z" fill="#4388F0"/>
  <path d="M43.7087 46.2931H46.8389V42.8351H47.8651L49.5483 46.2931H53.0476L51.0248 42.3755C52.0583 41.8794 52.7375 40.6975 52.7375 39.3844V39.3698C52.7375 37.0352 51.2463 35.7659 48.5074 35.7659H43.7087V46.2931ZM46.8389 40.6538V38.0493H48.1456C48.9725 38.0493 49.5483 38.5819 49.5483 39.3479V39.3625C49.5483 40.1358 48.9872 40.6538 48.1456 40.6538H46.8389Z" fill="#4388F0"/>
  <path d="M64.1512 46.2931H67.2814V42.2223H71.0318V46.2931H74.1619V35.7659H71.0318V39.771H67.2814V35.7659H64.1512V46.2931Z" fill="#4388F0"/>
  <path d="M84.3684 46.4828C87.6832 46.4828 89.7429 44.389 89.7429 41.0331V41.0185C89.7429 37.6699 87.6758 35.5762 84.3684 35.5762C81.0832 35.5762 79.0087 37.6626 79.0087 41.0185V41.0331C79.0087 44.3963 81.0684 46.4828 84.3684 46.4828ZM84.3684 43.9586C83.0543 43.9586 82.198 42.8497 82.198 41.0331V41.0185C82.198 39.202 83.0617 38.1004 84.3684 38.1004C85.6973 38.1004 86.5537 39.2093 86.5537 41.0185V41.0331C86.5537 42.8278 85.7194 43.9586 84.3684 43.9586Z" fill="#4388F0"/>
  <path d="M94.5897 46.2931H97.7199V42.8351H98.7461L100.429 46.2931H103.929L101.906 42.3755C102.939 41.8794 103.619 40.6975 103.619 39.3844V39.3698C103.619 37.0352 102.127 35.7659 99.3883 35.7659H94.5897V46.2931ZM97.7199 40.6538V38.0493H99.0266C99.8534 38.0493 100.429 38.5819 100.429 39.3479V39.3625C100.429 40.1358 99.8682 40.6538 99.0266 40.6538H97.7199Z" fill="#4388F0"/>
  <path d="M108.524 46.2931H111.655V35.7659H108.524V46.2931Z" fill="#4388F0"/>
  <path d="M116.612 46.2931H125.183V43.8418H120.274V43.7835L125.006 37.6991V35.7659H116.656V38.2171H121.359V38.2755L116.612 44.3525V46.2931Z" fill="#4388F0"/>
  <path d="M135.102 46.4828C138.417 46.4828 140.476 44.389 140.476 41.0331V41.0185C140.476 37.6699 138.409 35.5762 135.102 35.5762C131.817 35.5762 129.742 37.6626 129.742 41.0185V41.0331C129.742 44.3963 131.802 46.4828 135.102 46.4828ZM135.102 43.9586C133.788 43.9586 132.931 42.8497 132.931 41.0331V41.0185C132.931 39.202 133.795 38.1004 135.102 38.1004C136.431 38.1004 137.287 39.2093 137.287 41.0185V41.0331C137.287 42.8278 136.453 43.9586 135.102 43.9586Z" fill="#4388F0"/>
  <path d="M145.323 46.2931H148.453V40.8215H148.505L152.3 46.2931H154.876V35.7659H151.746V41.1498H151.694L147.929 35.7659H145.323V46.2931Z" fill="#4388F0"/>
  <defs>
    <filter id="filter0_d_382_2500" x="44.3692" y="5.35156" width="32.9433" height="33.3007" filterUnits="userSpaceOnUse" color-interpolation-filters="sRGB">
      <feFlood flood-opacity="0" result="BackgroundImageFix"/>
      <feColorMatrix in="SourceAlpha" type="matrix" values="0 0 0 0 0 0 0 0 0 0 0 0 0 0 0 0 0 0 127 0" result="hardAlpha"/>
      <feOffset dy="16.8047"/>
      <feGaussianBlur stdDeviation="4.20116"/>
      <feColorMatrix type="matrix" values="0 0 0 0 0 0 0 0 0 0 0 0 0 0 0 0 0 0 0.15 0"/>
      <feBlend mode="normal" in2="BackgroundImageFix" result="effect1_dropShadow_382_2500"/>
      <feBlend mode="normal" in="SourceGraphic" in2="effect1_dropShadow_382_2500" result="shape"/>
    </filter>
    <filter id="filter1_d_382_2500" x="82.793" y="14.7393" width="32.9394" height="33.3007" filterUnits="userSpaceOnUse" color-interpolation-filters="sRGB">
      <feFlood flood-opacity="0" result="BackgroundImageFix"/>
      <feColorMatrix in="SourceAlpha" type="matrix" values="0 0 0 0 0 0 0 0 0 0 0 0 0 0 0 0 0 0 127 0" result="hardAlpha"/>
      <feOffset dy="16.8047"/>
      <feGaussianBlur stdDeviation="4.20116"/>
      <feColorMatrix type="matrix" values="0 0 0 0 0 0 0 0 0 0 0 0 0 0 0 0 0 0 0.15 0"/>
      <feBlend mode="normal" in2="BackgroundImageFix" result="effect1_dropShadow_382_2500"/>
      <feBlend mode="normal" in="SourceGraphic" in2="effect1_dropShadow_382_2500" result="shape"/>
    </filter>
  </defs>
</svg>