<svg xmlns="http://www.w3.org/2000/svg" width="1398" height="848" viewBox="0 0 1398 848" fill="none">
  <path d="M954.987 1174.89C834.384 1363 756.76 1410.84 593.01 1350.53C537.342 1314.72 506.308 1314.18 451.382 1360.51C305.566 1416.97 270.096 1365.36 233.261 1225.75C235.603 1134.57 197.876 1108.23 133.788 1059.23C-35.0029 946.104 -26.0962 876.065 64.9406 746.269C152.564 640.799 161.765 584.042 180.899 482.68C181.924 301.661 221.562 266.157 320.524 250.569C399.868 226.675 431.606 201.683 470.701 140.549C572.186 79.3124 631.183 74.1142 738.464 94.3833C803.119 125.776 837.534 117.557 897.554 83.1727C1008.96 -20.2822 1075.28 -26.0645 1200.21 61.8451C1250.21 128.342 1282.09 158.772 1349.88 193.631C1477.75 279.839 1457.55 338.062 1418.1 442.292C1397.24 487.162 1392.22 511.855 1425.89 552.879C1447.64 715.432 1424.68 786.711 1271.38 850.382C1186.68 896.236 1142.18 929.303 1074.45 1016.34C1062.78 1113.12 1030.05 1141.27 954.987 1174.89Z" fill="#4D55C4" fill-opacity="0.05"/>
</svg>